<?xml version="1.0" encoding="UTF-8"?>
<svg id="folder" xmlns="http://www.w3.org/2000/svg" viewBox="0 0 101 101">
  <defs>
    <style>
      .cls-1 {
        stroke: #fff;
        stroke-miterlimit: 10;
        stroke-width: 3px;
      }
    </style>
  </defs>
  <path class="cls-1" d="M75.78,32.62h-24.86l-5.8-9.74c-.96-1.61-2.69-2.59-4.57-2.59H13.24c-2.94,0-5.32,2.38-5.32,5.32v52.11H82.11V38.95c0-3.5-2.83-6.33-6.33-6.33Z"/>
  <rect class="cls-1" x="28.5" y="7.19" width="39.23" height="61.02" rx="4.01" ry="4.01" transform="translate(85.72 -10.49) rotate(89.89)"/>
  <rect class="cls-1" x="35.07" y="15.12" width="38.85" height="60.84" rx="3.97" ry="3.97" transform="translate(99.93 -9.05) rotate(89.89)"/>
  <path class="cls-1" d="M87.95,38.93l-66.54,1.51c-2.23,.05-4.16,1.57-4.73,3.73l-8.59,32.5c-.85,3.23,1.62,6.37,4.96,6.29l66.54-1.51c2.23-.05,4.16-1.57,4.73-3.73l8.59-32.5c.85-3.23-1.62-6.37-4.96-6.29Z"/>
</svg>