<?xml version="1.0" encoding="UTF-8"?>
<svg id="folder" xmlns="http://www.w3.org/2000/svg" viewBox="0 0 101 101">
  <defs>
    <style>
      .cls-1, .cls-2 {
        stroke-linecap: round;
        stroke-linejoin: round;
        stroke-width: 4.02px;
      }

      .cls-1, .cls-2, .cls-3 {
        stroke: #000;
      }

      .cls-1, .cls-3 {
        fill: #fff;
      }

      .cls-2 {
        fill: none;
      }

      .cls-3 {
        stroke-miterlimit: 10;
        stroke-width: 3.18px;
      }
    </style>
  </defs>
  <path class="cls-3" d="M50.5,13.54C30.23,13.54,13.79,29.98,13.79,50.25c0,9.9,3.92,18.87,10.29,25.48,.33,3.1-.4,7.57-5.93,10.81,0,0,8.15,3.38,17.32-2.79,4.59,2.06,9.67,3.22,15.03,3.22,20.27,0,36.71-16.44,36.71-36.71S70.77,13.54,50.5,13.54Z"/>
  <g>
    <polyline class="cls-1" points="66.87 39.08 57.07 45.63 66.87 52.22"/>
    <path class="cls-3" d="M44.6,57.98h11.79v3.77c0,3.25-2.64,5.9-5.9,5.9h0c-3.25,0-5.9-2.64-5.9-5.9v-3.77h0Z"/>
    <polyline class="cls-2" points="34.13 52.22 43.93 45.68 34.13 39.08"/>
  </g>
</svg>