<?xml version="1.0" encoding="UTF-8"?>
<svg id="folder" xmlns="http://www.w3.org/2000/svg" viewBox="0 0 101 101">
  <defs>
    <style>
      .cls-1 {
        fill: none;
      }

      .cls-1, .cls-2 {
        stroke: #000;
        stroke-miterlimit: 10;
      }

      .cls-2 {
        fill: #fff;
        stroke-width: 3.18px;
      }
    </style>
  </defs>
  <g id="_76WHow.tif" data-name="76WHow.tif">
    <g>
      <path class="cls-2" d="M87.76,21.3v58.5c-.03,.13-.08,.25-.1,.38-.02,.14,0,.29-.02,.44-.32,2.19-1.33,3.99-3.05,5.37-1.55,1.24-3.34,1.8-5.3,1.8-19.12,0-38.24,0-57.36,0-.6,0-1.21-.05-1.81-.14-1.94-.3-3.57-1.22-4.86-2.7-1.4-1.61-2.03-3.49-2.03-5.62,0-19.19,0-38.38,0-57.57,0-.34-.01-.68,.02-1.02,.19-1.72,.81-3.27,1.96-4.58,1.5-1.71,3.39-2.67,5.67-2.84,.14-.01,.28-.06,.42-.09,19.45,0,38.9,0,58.36,0,.09,.03,.18,.07,.27,.08,.34,.04,.68,.05,1.01,.11,2.23,.43,4.02,1.57,5.31,3.44,.83,1.21,1.34,2.54,1.4,4.03,0,.14,.06,.28,.09,.42Zm-34.21,56.17c.01-.21,.04-.41,.04-.61,0-5.96,0-11.92,0-17.88,0-.71,.04-1.43,.1-2.14,.09-1.01,.36-1.98,.8-2.89,.76-1.54,1.95-2.58,3.61-3.05,1.07-.3,2.15-.36,3.24-.21,1.58,.21,2.83,.97,3.68,2.33,.58,.93,.88,1.96,1.06,3.04,.16,.94,.18,1.88,.18,2.83,0,4.44,0,8.89,0,13.33,0,1.58,0,3.16,0,4.73,0,.18,.03,.35,.04,.53h11.15c.01-.23,.03-.43,.03-.63,0-7.16,0-14.33,0-21.49,0-.91-.06-1.82-.12-2.73-.09-1.46-.4-2.88-.89-4.26-.72-2.03-1.84-3.79-3.51-5.18-2.09-1.74-4.55-2.53-7.22-2.75-.76-.06-1.52-.09-2.29-.03-.8,.07-1.59,.17-2.37,.36-3,.76-5.39,2.43-7.21,4.92-.07,.09-.14,.18-.21,.28-.07-.14-.08-.27-.08-.39,0-1.18,0-2.36,0-3.53q0-.58-.59-.58c-3.21,0-6.41,0-9.62,0-.7,0-.6,.05-.6,.6,0,8.06,0,16.12,0,24.18,0,3.57,0,7.14,0,10.71,0,.17,.02,.33,.03,.52h10.74ZM24.6,41.54c-.07,.43-.05,35.63,.01,35.91,.35,.08,10.83,.07,11.14-.01V41.52c-.13-.02-.25-.04-.36-.05-2.51-.08-10.44-.03-10.79,.07Zm-1.12-11.33c0,3.5,2.74,6.67,6.62,6.68,3.75,.02,6.66-2.99,6.65-6.68,0-3.93-3.18-6.68-6.62-6.68-3.64,0-6.65,2.97-6.66,6.68Z"/>
      <path class="cls-1" d="M53.55,77.48h-10.74c-.01-.19-.03-.35-.03-.52,0-3.57,0-7.14,0-10.71,0-8.06,0-16.12,0-24.18,0-.54-.1-.6,.6-.6,3.21,0,6.41,0,9.62,0q.59,0,.59,.58c0,1.18,0,2.36,0,3.53,0,.13,0,.25,.08,.39,.07-.09,.14-.18,.21-.28,1.82-2.49,4.21-4.16,7.21-4.92,.78-.2,1.57-.29,2.37-.36,.77-.07,1.53-.04,2.29,.03,2.67,.22,5.13,1.01,7.22,2.75,1.67,1.39,2.79,3.15,3.51,5.18,.49,1.38,.79,2.8,.89,4.26,.06,.91,.11,1.82,.12,2.73,0,7.16,0,14.33,0,21.49,0,.2-.02,.41-.03,.63h-11.15c-.01-.18-.04-.36-.04-.53,0-1.58,0-3.16,0-4.73,0-4.44,0-8.89,0-13.33,0-.95-.02-1.89-.18-2.83-.18-1.07-.48-2.1-1.06-3.04-.85-1.37-2.1-2.12-3.68-2.33-1.1-.15-2.18-.09-3.24,.21-1.66,.47-2.85,1.51-3.61,3.05-.45,.91-.72,1.88-.8,2.89-.06,.71-.1,1.43-.1,2.14,0,5.96,0,11.92,0,17.88,0,.2-.02,.4-.04,.61Z"/>
      <path class="cls-1" d="M24.6,41.54c.35-.1,8.28-.15,10.79-.07,.12,0,.23,.03,.36,.05v35.92c-.31,.09-10.79,.1-11.14,.01-.07-.28-.08-35.47-.01-35.91Z"/>
      <path class="cls-1" d="M23.48,30.21c0-3.72,3.02-6.69,6.66-6.68,3.44,0,6.61,2.75,6.62,6.68,0,3.69-2.9,6.7-6.65,6.68-3.88-.02-6.62-3.18-6.62-6.68Z"/>
    </g>
  </g>
</svg>