<?xml version="1.0" encoding="UTF-8"?>
<svg id="folder" xmlns="http://www.w3.org/2000/svg" viewBox="0 0 101 101">
  <defs>
    <style>
      .cls-1 {
        fill: #fff;
      }

      .cls-2 {
        stroke: #fff;
        stroke-miterlimit: 10;
        stroke-width: 3.18px;
      }
    </style>
  </defs>
  <g id="_76WHow.tif" data-name="76WHow.tif">
    <g>
      <path class="cls-2" d="M88.3,20.88v59.34c-.03,.13-.08,.25-.1,.39-.02,.15,0,.3-.02,.44-.32,2.22-1.35,4.04-3.1,5.45-1.57,1.26-3.39,1.82-5.38,1.82-19.4,0-38.79,0-58.19,0-.61,0-1.23-.05-1.84-.14-1.97-.31-3.62-1.24-4.93-2.74-1.42-1.63-2.06-3.54-2.05-5.7,0-19.47,0-38.93,0-58.4,0-.34-.01-.69,.02-1.03,.19-1.75,.82-3.31,1.99-4.64,1.52-1.74,3.44-2.71,5.75-2.88,.14-.01,.28-.06,.43-.09,19.73,0,39.46,0,59.2,0,.09,.03,.18,.07,.28,.08,.34,.04,.69,.05,1.02,.11,2.27,.44,4.08,1.6,5.39,3.49,.85,1.22,1.36,2.58,1.42,4.09,0,.14,.06,.28,.1,.43Zm-34.7,56.98c.01-.22,.04-.42,.04-.62,0-6.05,0-12.09,0-18.14,0-.72,.04-1.45,.1-2.17,.09-1.03,.36-2.01,.82-2.93,.77-1.56,1.98-2.61,3.66-3.09,1.08-.31,2.18-.36,3.29-.21,1.61,.22,2.87,.98,3.73,2.37,.59,.95,.89,1.99,1.08,3.08,.16,.95,.18,1.91,.18,2.87,0,4.51,0,9.01,0,13.52,0,1.6,0,3.2,0,4.8,0,.18,.03,.36,.04,.54h11.31c.01-.23,.03-.44,.03-.64,0-7.27,0-14.53,0-21.8,0-.92-.06-1.84-.12-2.76-.1-1.48-.4-2.92-.9-4.32-.73-2.06-1.87-3.85-3.56-5.25-2.12-1.76-4.62-2.57-7.33-2.79-.77-.06-1.54-.09-2.32-.03-.81,.07-1.61,.17-2.4,.37-3.05,.77-5.47,2.47-7.32,4.99-.07,.09-.14,.19-.21,.28-.07-.14-.08-.27-.08-.4,0-1.19,0-2.39,0-3.58q0-.59-.6-.59c-3.25,0-6.5,0-9.75,0-.71,0-.61,.06-.61,.61,0,8.18,0,16.35,0,24.53,0,3.62,0,7.24,0,10.86,0,.17,.02,.34,.03,.53h10.89ZM24.23,41.41c-.07,.44-.05,36.14,.01,36.42,.35,.08,10.98,.07,11.3-.01V41.39c-.13-.02-.25-.04-.37-.05-2.54-.08-10.59-.03-10.94,.07Zm-1.14-11.49c0,3.55,2.78,6.76,6.72,6.78,3.81,.02,6.76-3.03,6.75-6.78,0-3.98-3.22-6.77-6.71-6.78-3.69,0-6.75,3.01-6.75,6.78Z"/>
      <rect x="19.28" y="18.15" width="63.17" height="64.78"/>
      <path class="cls-1" d="M53.59,77.87h-10.89c-.01-.19-.03-.36-.03-.53,0-3.62,0-7.24,0-10.86,0-8.18,0-16.35,0-24.53,0-.55-.11-.61,.61-.61,3.25,0,6.5,0,9.75,0q.59,0,.6,.59c0,1.19,0,2.39,0,3.58,0,.13,0,.26,.08,.4,.07-.09,.14-.19,.21-.28,1.85-2.53,4.27-4.22,7.32-4.99,.79-.2,1.59-.3,2.4-.37,.78-.07,1.55-.04,2.32,.03,2.71,.22,5.2,1.02,7.33,2.79,1.69,1.41,2.83,3.19,3.56,5.25,.5,1.4,.8,2.84,.9,4.32,.06,.92,.12,1.84,.12,2.76,0,7.27,0,14.53,0,21.8,0,.21-.02,.41-.03,.64h-11.31c-.01-.18-.04-.36-.04-.54,0-1.6,0-3.2,0-4.8,0-4.51,0-9.01,0-13.52,0-.96-.02-1.92-.18-2.87-.19-1.09-.49-2.13-1.08-3.08-.87-1.39-2.13-2.15-3.73-2.37-1.11-.15-2.21-.09-3.29,.21-1.69,.48-2.9,1.53-3.66,3.09-.45,.93-.73,1.91-.82,2.93-.06,.72-.1,1.45-.1,2.17,0,6.05,0,12.09,0,18.14,0,.2-.02,.41-.04,.62Z"/>
      <path class="cls-1" d="M24.23,41.41c.35-.1,8.4-.15,10.94-.07,.12,0,.24,.03,.37,.05v36.43c-.32,.09-10.95,.1-11.3,.01-.07-.28-.09-35.99-.01-36.42Z"/>
      <path class="cls-1" d="M23.09,29.92c0-3.77,3.06-6.78,6.75-6.78,3.49,0,6.71,2.79,6.71,6.78,0,3.74-2.94,6.79-6.75,6.78-3.94-.02-6.72-3.22-6.72-6.78Z"/>
    </g>
  </g>
</svg>