<?xml version="1.0" encoding="UTF-8"?>
<svg id="folder" xmlns="http://www.w3.org/2000/svg" viewBox="0 0 101 101">
  <defs>
    <style>
      .cls-1 {
        fill: #fff;
      }

      .cls-2 {
        stroke: #fff;
        stroke-miterlimit: 10;
        stroke-width: 3.18px;
      }
    </style>
  </defs>
  <g id="_76WHow.tif" data-name="76WHow.tif">
    <g>
      <path class="cls-2" d="M94.36,16.13V84.99c-.04,.15-.09,.3-.11,.45-.02,.17,0,.34-.02,.51-.38,2.57-1.56,4.69-3.6,6.32-1.82,1.46-3.93,2.11-6.24,2.11-22.51,0-45.01,0-67.52,0-.71,0-1.43-.05-2.13-.16-2.29-.36-4.2-1.44-5.72-3.18-1.64-1.89-2.38-4.11-2.38-6.61,.01-22.59,0-45.18,0-67.77,0-.4-.02-.8,.03-1.2,.22-2.03,.96-3.85,2.31-5.39,1.77-2.02,3.99-3.15,6.67-3.34,.17-.01,.33-.07,.5-.11,22.9,0,45.79,0,68.69,0,.11,.03,.21,.08,.32,.1,.4,.05,.8,.06,1.19,.13,2.63,.51,4.73,1.85,6.26,4.05,.98,1.42,1.58,2.99,1.64,4.74,0,.17,.07,.33,.11,.49ZM54.09,82.25c.01-.25,.04-.49,.04-.72,0-7.02,0-14.03,0-21.05,0-.84,.04-1.68,.12-2.52,.1-1.19,.42-2.33,.95-3.41,.89-1.81,2.3-3.03,4.25-3.59,1.25-.36,2.53-.42,3.82-.25,1.87,.25,3.33,1.14,4.33,2.74,.69,1.1,1.03,2.31,1.25,3.57,.19,1.1,.21,2.22,.21,3.33,0,5.23,0,10.46,0,15.69,0,1.86,0,3.72,0,5.57,0,.21,.03,.41,.05,.63h13.12c.01-.27,.03-.51,.03-.74,0-8.43,0-16.86,0-25.29,0-1.07-.07-2.14-.14-3.21-.11-1.72-.47-3.39-1.04-5.01-.85-2.39-2.17-4.46-4.14-6.09-2.46-2.05-5.36-2.98-8.5-3.24-.89-.07-1.79-.11-2.69-.03-.94,.08-1.87,.2-2.79,.43-3.54,.9-6.34,2.86-8.49,5.79-.08,.11-.17,.22-.25,.33-.09-.17-.1-.32-.1-.46,0-1.39,0-2.77,0-4.16q0-.68-.69-.68c-3.77,0-7.55,0-11.32,0-.83,0-.7,.06-.7,.7,0,9.49,0,18.98,0,28.47,0,4.2,0,8.4,0,12.6,0,.19,.02,.39,.03,.61h12.64ZM20.02,39.96c-.08,.51-.06,41.94,.02,42.27,.41,.1,12.74,.09,13.11-.02V39.93c-.15-.02-.29-.05-.43-.05-2.95-.09-12.29-.04-12.7,.08Zm-1.32-13.34c0,4.12,3.23,7.85,7.79,7.87,4.42,.02,7.84-3.52,7.83-7.87,0-4.62-3.74-7.86-7.79-7.87-4.29,0-7.83,3.49-7.84,7.87Z"/>
      <rect x="14.27" y="12.96" width="73.31" height="75.17"/>
      <path class="cls-1" d="M54.09,82.25h-12.64c-.01-.22-.03-.42-.03-.61,0-4.2,0-8.4,0-12.6,0-9.49,0-18.98,0-28.47,0-.64-.12-.7,.7-.7,3.77,0,7.55,0,11.32,0q.69,0,.69,.68c0,1.39,0,2.77,0,4.16,0,.15,0,.3,.1,.46,.08-.11,.17-.22,.25-.33,2.15-2.93,4.95-4.9,8.49-5.79,.91-.23,1.84-.35,2.79-.43,.9-.08,1.8-.04,2.69,.03,3.14,.26,6.04,1.19,8.5,3.24,1.97,1.63,3.29,3.71,4.14,6.09,.58,1.62,.93,3.3,1.04,5.01,.07,1.07,.13,2.14,.14,3.21,.01,8.43,0,16.86,0,25.29,0,.24-.02,.48-.03,.74h-13.12c-.02-.21-.05-.42-.05-.63,0-1.86,0-3.72,0-5.57,0-5.23,0-10.46,0-15.69,0-1.11-.02-2.23-.21-3.33-.22-1.26-.56-2.48-1.25-3.57-1.01-1.61-2.47-2.49-4.33-2.74-1.29-.17-2.56-.11-3.82,.25-1.96,.56-3.36,1.78-4.25,3.59-.53,1.07-.84,2.22-.95,3.41-.07,.84-.12,1.68-.12,2.52,0,7.02,0,14.03,0,21.05,0,.24-.03,.47-.04,.72Z"/>
      <path class="cls-1" d="M20.02,39.96c.41-.12,9.75-.18,12.7-.08,.14,0,.27,.03,.43,.05v42.28c-.37,.1-12.7,.11-13.11,.02-.08-.33-.1-41.76-.02-42.27Z"/>
      <path class="cls-1" d="M18.69,26.62c0-4.37,3.55-7.87,7.84-7.87,4.05,0,7.78,3.24,7.79,7.87,0,4.34-3.41,7.88-7.83,7.87-4.57-.02-7.79-3.74-7.79-7.87Z"/>
    </g>
  </g>
</svg>