<?xml version="1.0" encoding="UTF-8"?>
<svg id="folder" xmlns="http://www.w3.org/2000/svg" viewBox="0 0 101 101">
  <defs>
    <style>
      .cls-1 {
        fill: #fff;
      }
    </style>
  </defs>
  <path class="cls-1" d="M67.02,4.71c-5.47,.85-10.43,4.45-12.94,9.38-.05,.1-.1,.19-.14,.29-6.75-5.02-16.84-4.93-23.5,.21-5.01,3.86-7.82,9.87-10.4,15.65-3.52,7.89-6.98,15.88-8.74,24.33-1.76,8.45-1.72,17.5,1.63,25.46,3.35,7.96,10.37,14.64,18.87,16.17,9.26,1.68,19.34-3.42,23.47-11.88,.46-.95,.86-1.94,1.16-2.96,1.16-2.96,1.39-13.14,1.39-13.14,0,0-16.5-2.98-16.23-1.93,.28,1.13-.34,2.5-.68,3.57-.04,.13-.1,.26-.15,.39h4.54c1.03,0,1.87,.84,1.87,1.87s-.84,1.87-1.87,1.87h-4.39l3.83,3.83c.72,.73,.72,1.91,0,2.64-.36,.36-.85,.55-1.32,.55s-.96-.18-1.32-.55l-3.82-3.82v5.41c0,1.03-.84,1.87-1.87,1.87s-1.87-.84-1.87-1.87v-5.36s-.03,0-.04,0l-3.79,3.78c-.36,.36-.84,.55-1.32,.55s-.96-.18-1.32-.55c-.73-.73-.72-1.91,0-2.64l3.59-3.59c-.03-.07-.09-.13-.12-.2,0-.01,0-.02,0-.03h-4.54c-1.03,0-1.87-.84-1.87-1.87s.84-1.87,1.87-1.87h4.63c.02-.07,.04-.14,.07-.2l-3.62-3.62c-.72-.73-.72-1.91,0-2.64,.73-.73,1.91-.73,2.64,0l3.33,3.33c.16-.12,.33-.21,.49-.33v-4.59c0-1.03,.84-1.87,1.87-1.87s1.87,.84,1.87,1.87v3.02c3.32-.84,6.84-.74,10.11-1.82,3.09-1.02,7.05-3.5,6.99-7.18,5.17,7.55,16.88,8.62,24.5,3.55,7.62-5.07,11.25-14.74,10.98-23.89-.39-13.27-7.1-33.76-23.83-31.17Zm-29.61,42.93c-1.75,0-3.18-1.42-3.18-3.18,0-1.75,1.42-3.18,3.18-3.18s3.18,1.42,3.18,3.18c0,1.75-1.42,3.18-3.18,3.18Z"/>
</svg>