<?xml version="1.0" encoding="UTF-8"?>
<svg id="text" xmlns="http://www.w3.org/2000/svg" viewBox="0 0 101 101">
  <g id="OqTwTN.tif">
    <g>
      <path d="M51.22,3.85c1.06,.48,1.65,1.35,2.11,2.4,1.73,3.86,3.51,7.7,5.27,11.55,.12,.27,.23,.54,.44,1.02-5.73-1.47-11.32-1.53-17.04,.02,.14-.41,.21-.65,.31-.87,1.85-4.04,3.72-8.07,5.54-12.11,.42-.92,1.07-1.54,1.93-1.99h1.43Z"/>
      <path d="M4.66,48.98c.48-1.06,1.35-1.64,2.4-2.11,3.78-1.69,7.53-3.44,11.3-5.17,.35-.16,.7-.31,1.27-.55-1.48,5.73-1.52,11.32,.01,17.06-.43-.17-.7-.26-.95-.38-4.06-1.86-8.14-3.68-12.17-5.62-.74-.35-1.24-1.18-1.86-1.79,0-.48,0-.96,0-1.43Z"/>
      <path d="M23.83,49.7c0-14.72,12.01-26.71,26.72-26.68,14.69,.02,26.64,11.99,26.64,26.68,0,14.72-12.01,26.71-26.72,26.69-14.68-.02-26.64-12-26.64-26.68Z"/>
      <path d="M22.62,33.96c-1.06-2.86-2.07-5.56-3.08-8.26-.65-1.76-1.3-3.52-1.96-5.27-.43-1.15-.41-2.23,.51-3.14,.92-.92,2-.93,3.15-.5,4.27,1.59,8.53,3.17,12.8,4.76,.19,.07,.38,.16,.68,.29-5.09,2.97-9.09,6.93-12.1,12.13Z"/>
      <path d="M22.64,65.46c3,5.16,6.99,9.12,12.13,12.12-1.67,.62-3.2,1.19-4.73,1.75-2.9,1.08-5.8,2.15-8.7,3.24-1.17,.44-2.29,.47-3.24-.46-.95-.94-.93-2.05-.49-3.23,1.57-4.21,3.13-8.42,4.7-12.63,.08-.22,.18-.44,.32-.79Z"/>
      <path d="M78.36,33.9c-2.97-5.09-6.94-9.09-12.11-12.09,1.9-.71,3.67-1.37,5.44-2.03,2.68-1,5.36-1.99,8.04-2.99,1.15-.43,2.24-.43,3.16,.48,.92,.91,.96,1.99,.53,3.15-1.6,4.3-3.2,8.6-4.8,12.9-.06,.16-.15,.32-.27,.59Z"/>
      <path d="M66.29,77.55c5.14-3,9.09-6.97,12.07-12.07,.14,.33,.26,.55,.34,.79,1.56,4.19,3.1,8.38,4.67,12.57,.44,1.18,.49,2.29-.44,3.24-.97,.98-2.1,.93-3.31,.47-4.21-1.59-8.43-3.14-12.65-4.71-.19-.07-.38-.16-.69-.29Z"/>
      <path d="M81.36,41.11c2.57,1.18,4.9,2.24,7.23,3.31,1.92,.88,3.84,1.77,5.77,2.64,1.15,.51,1.97,1.27,1.98,2.6,.02,1.37-.81,2.16-1.99,2.69-3.96,1.8-7.91,3.62-11.86,5.43-.29,.13-.59,.26-1.1,.49,1.49-5.75,1.52-11.34-.02-17.16Z"/>
      <path d="M41.97,80.56c5.76,1.51,11.32,1.52,17.06,0-.17,.44-.26,.7-.38,.95-1.83,4.01-3.68,8.01-5.5,12.03-.52,1.15-1.27,1.97-2.6,1.98-1.37,.02-2.15-.81-2.69-1.99-1.82-4.02-3.67-8.02-5.5-12.02-.11-.24-.2-.49-.39-.95Z"/>
    </g>
  </g>
</svg>